<svg xmlns="http://www.w3.org/2000/svg" viewBox="0 0 300 300" height="40" width="40">
 <defs>
  <clipPath id="clipPath5363">
    <path d="m250 652.86a149.5 149.5 0 0 1 43.939 6.7598c-1.9212 6.0896-5.3131 16.983-8.8691 28.41a119.6 119.6 0 0 0 -35.07 -5.27 119.6 119.6 0 0 0 -35.141 5.4043c-3.6-11.532-7.0384-22.544-8.9688-28.643a149.5 149.5 0 0 1 44.11 -6.66z" stroke="#000" stroke-width="1px" fill="none"/>
    <path d="m368.66 711.73a149.5 149.5 0 0 1 30.836 90.545c-1.4675-.0791-13.779-.12977-29.906-.16797a119.6 119.6 0 0 0 -24.533 -72.17c10.565-8.1224 19.703-15.157 23.604-18.207z" stroke="#000" stroke-width="1px" fill="none"/>
    <path d="m131.2 711.8c3.8843 3.0324 13.08 10.098 23.717 18.26a119.6 119.6 0 0 0 -24.51 72.166c-16.131.0542-28.444.11471-29.906.19531a149.5 149.5 0 0 1 -.002 -.0586 149.5 149.5 0 0 1 30.701 -90.562z" stroke="#000" stroke-width="1px" fill="none"/>
    <path d="m344.84 874.98c10.683 8.1074 19.931 15.112 23.879 18.057a149.5 149.5 0 0 1 -74.416 52.1c-1.8531-6.124-5.2373-17.157-8.7832-28.709a119.6 119.6 0 0 0 59.32 -41.447z" stroke="#000" stroke-width="1px" fill="none"/>
    <path d="m155.18 875.11a119.6 119.6 0 0 0 59.371 41.467c-3.4999 11.439-6.8356 22.344-8.6797 28.457a149.5 149.5 0 0 1 -74.439 -51.928c3.9647-2.9634 13.146-9.9344 23.748-17.996z" stroke="#000" stroke-width="1px" fill="none"/>
    <path d="m250 725.95a76.411 76.411 0 0 0 -76.41 76.41 76.411 76.411 0 0 0 76.41 76.41 76.411 76.411 0 0 0 76.41 -76.41 76.411 76.411 0 0 0 -76.41 -76.41zm0-38.206a114.62 114.62 0 0 1 114.62 114.62 114.62 114.62 0 0 1 -114.62 114.62 114.62 114.62 0 0 1 -114.62 -114.62 114.62 114.62 0 0 1 114.62 -114.61z" stroke="#000" stroke-width="1px" fill="none"/>
  </clipPath>
 </defs>
  <g fill-opacity=".5" clip-path="url(#clipPath5363)"  transform="translate(-100 -652)">
   <path fill="#3771c8" d="m156.11 778.39c23.27-116.03 46.54-232.07 69.82-348.1 48.25 59.68 96.5 119.36 144.76 179.04-23.28 116.03-46.55 232.07-69.82 348.1-48.26-59.68-96.51-119.36-144.76-179.04z"/>
   <path d="m273.81 977.44l-212.97-162.24c90.45-29.43 180.9-58.87 271.35-88.31 70.989 54.078 141.98 108.16 212.97 162.23l-271.35 88.314z" fill="#5f8dd3"/>
   <path d="m70.854 891.15c80.036-40.65 160.08-81.29 240.12-121.94-52.25 90.72-104.51 181.44-156.77 272.19-80.034 40.6-160.07 81.3-240.11 121.9 52.253-90.7 104.51-181.43 156.76-272.15z" fill="#1a1a1a"/>
   <path fill="#666" d="m168.59 665.61c74.99 105.23 149.97 210.47 224.96 315.7-149.67-43.74-299.34-87.47-449-131.21l-224.96-315.71c149.67 43.739 299.33 87.477 449 131.22z"/>
   <path fill="#afc6e9" d="m602.11 446.08c156.19 44.3 312.37 88.59 468.59 132.88-169.9 103.45-339.76 206.9-509.62 310.35-156.19-44.29-312.37-88.59-468.56-132.88l509.59-310.35z"/>
   <path fill="#b3b3b3" d="m208.75 638.58c-3.5328 121.74-7.0657 243.47-10.599 365.21 54.104 81.052 108.21 162.1 162.31 243.15 3.5328-121.74 7.0657-243.47 10.599-365.21-54.1-81.05-108.2-162.1-162.31-243.15z"/>
  </g>
</svg>